<svg xmlns="http://www.w3.org/2000/svg" xmlns:xlink="http://www.w3.org/1999/xlink" width="477.348" height="339.767"><defs><radialGradient id="b" cx=".518" cy=".338" r=".991" gradientTransform="matrix(.655 .009 -.003 .505 .18 .12)" gradientUnits="objectBoundingBox"><stop offset="0" stop-color="#867466"/><stop offset=".5" stop-color="#c4a494"/><stop offset="1" stop-color="#afa090"/></radialGradient><radialGradient id="c" cx=".518" cy=".317" r=".922" gradientTransform="matrix(.372 .06 -.017 .752 .347 .075)" gradientUnits="objectBoundingBox"><stop offset="0" stop-color="#aaa" stop-opacity=".573"/><stop offset="1" stop-color="#8b7466" stop-opacity="0"/></radialGradient><radialGradient id="d" cx=".52" cy="-.082" r="1.634" gradientTransform="matrix(.342 -.014 .003 .557 .321 -.429)" gradientUnits="objectBoundingBox"><stop offset="0" stop-color="#dec1ae" stop-opacity=".573"/><stop offset="1" stop-color="#ffe4d1" stop-opacity="0"/></radialGradient><radialGradient id="e" cx=".517" cy=".876" r="3.179" gradientTransform="matrix(.162 0 0 .187 .427 2.071)" gradientUnits="objectBoundingBox"><stop offset="0" stop-color="#ffe9db"/><stop offset=".512" stop-color="#ffdbc3" stop-opacity=".486"/><stop offset="1" stop-color="#ffe2ce" stop-opacity="0"/></radialGradient><radialGradient id="a" cx=".515" cy="1.017" r="2.78" gradientTransform="matrix(.185 0 0 .21 .419 2.341)" gradientUnits="objectBoundingBox"><stop offset="0" stop-color="#fff"/><stop offset="1" stop-color="#fff" stop-opacity="0"/></radialGradient><radialGradient id="f" cx=".509" cy="-.047" r="3.366" gradientTransform="matrix(.154 0 0 .183 .43 -2.028)" gradientUnits="objectBoundingBox"><stop offset="0" stop-color="#ff7f2a"/><stop offset="1" stop-color="#ff7f2a" stop-opacity="0"/></radialGradient><radialGradient id="g" cx=".509" cy="-.047" r="3.366" gradientTransform="matrix(.154 0 0 .183 .43 -2.028)" xlink:href="#a"/></defs><path data-name="Path 169" d="M443.212 269.224c0 38.96-86.333 70.543-192.825 70.543S57.563 308.184 57.563 269.224s86.333-70.543 192.825-70.543 192.824 31.584 192.824 70.543z" fill="#7c7c7c" opacity=".416"/><g data-name="Group 5"><path data-name="Path 170" d="M325.275 53.788c-5.7-1.742 32.193-5.727 67.864-6.4" fill="none" stroke="#707070" stroke-linecap="round" stroke-linejoin="round" stroke-width="6.871" opacity=".518"/><path data-name="Path 171" d="M745.3 412.766c-40.426 1.531-64.309 59.245-22.6 102.745-7 19.776 3.607 36.034 24.118 50.306 1.378 6.89 31.67 95.07 31.67 95.07-4.107 2.094-7.746 15.676 2.741 22.717 98.017 57 227.673 57.789 340.4-10.293 5.478-4.454 13.1-15.234 3.471-24.849l19.307-80.576c25.767-9.381 27.719-36.47 24.788-51.707 30.021-68.764-18.428-149.022-94.4-58.589-87.417-23.526-185.226-27.57-268.718-5.481-20.59-29.111-42.406-40.041-60.783-39.345zm-3.167 23.387c10.74-.483 24.4 7.076 37.09 27.651-16.439 6.719-32.572 13.725-40.684 28.259-26.917-24.769-16.911-54.989 3.593-55.911zm393.916 2.071c21.487-.5 32.674 30.551 5.116 55.911-8.592-13.9-21.2-24.174-40.684-28.259 12.107-19.64 25.074-27.405 35.567-27.652z" transform="translate(-700.857 -412.733)" fill="url(#b)"/><path data-name="Path 172" d="M132.356 53.219c-107.943 25.646-117.352 89 25.494 110.648 67.066 12.1 87.027 19.311 152.279 8.644 202.707-10.19 119.046-105.072 47.544-114.971-61.767-9.306-147.2-19.524-225.315-4.322z" fill="#a38571"/><path data-name="Path 173" d="M50.776 151.113l30.317 99.806c83.868 72.87 259.947 44.934 338.314-8.014l17.226-80.865c-94.607 47.984-270.725 46.909-385.867-10.928z" fill="#b19582"/><path data-name="Rectangle 1" fill="#fff" opacity=".292" d="M401.756 162.029l29.234 7.905-17.444 64.506-29.234-7.905z"/><path data-name="Path 174" d="M724.915 495.27l30.317 99.806c83.868 72.87 259.947 44.934 338.314-8.014l17.226-80.865c-27.341 13.867-61.49 23.637-99.278 29.163-92.032 13.46-204.723 1.032-286.594-40.09z" transform="translate(-678.037 -334.413)" opacity=".615" fill="url(#c)"/><path data-name="Rectangle 2" fill="#fdeee3" opacity=".367" d="M65.57 170.663l29.234-7.905 18.097 66.923-29.234 7.905z"/><path data-name="Path 175" d="M49.802 166.353a1.478 1.478 0 00-1.308 1.1 1.452 1.452 0 00.628 1.578c40.888 30.048 115.051 46.2 190.273 47.992s151.438-10.784 196.276-39.161a1.465 1.465 0 00.464-2.04 1.515 1.515 0 00-2.072-.457c-43.88 27.77-119.7 40.518-194.541 38.735S90.767 195.985 50.856 166.655a1.5 1.5 0 00-.928-.3h-.124zm9.709 26.31a1.474 1.474 0 00-1.219 1.15 1.452 1.452 0 00.662 1.529c39.228 30.062 110.457 46.2 182.606 47.992s145.216-10.771 188.233-39.162a1.456 1.456 0 00.4-2.04 1.507 1.507 0 00-2.072-.4c-42.056 27.757-114.756 40.458-186.5 38.674S99.063 222.344 60.808 193.03a1.5 1.5 0 00-.989-.365 1.513 1.513 0 00-.309 0zm7.977 24.361a1.475 1.475 0 00-1.187 1.108 1.45 1.45 0 00.569 1.511c37.77 30.074 106.284 46.26 175.742 48.053s139.825-10.819 181.246-39.222a1.453 1.453 0 00-.083-2.667 1.5 1.5 0 00-1.587.292c-40.461 27.743-110.415 40.458-179.455 38.675s-137.208-18.08-174.012-47.382a1.759 1.759 0 00-1.237-.365zm350.065 26.371c-37.659 26.706-104.31 41.087-170.733 42.45s-132.7-10.346-169.558-35.141l-1.113 1.645c37.531 25.246 104.049 36.813 170.733 35.447s133.505-15.669 171.784-42.816l-1.113-1.583z" fill="#7e5f4b"/><path data-name="Path 176" d="M252.177 61.599c-4.138 0-8.261.071-12.4.183-66.213 1.795-131.507 17.947-167.611 48.115a2.021 2.021 0 00-.859 1.838 1.938 1.938 0 001.107 1.663 1.6 1.6 0 001.818-.4c34.958-29.21 99.894-45.54 165.654-47.322s132.424 11 170.876 38.674a1.587 1.587 0 001.811.183 2.062 2.062 0 00.038-3.472c-37.1-26.7-98.364-39.456-160.433-39.466zm3.318 26.371c-4.051 0-8.131.028-12.182.122-64.823 1.5-128.707 15-164.078 40.257a2.062 2.062 0 00.038 3.472 1.587 1.587 0 001.811-.184c34.231-24.447 97.9-38.156 162.338-39.649s129.781 9.172 167.449 32.34a1.586 1.586 0 001.859.1 2.016 2.016 0 00.879-1.838 1.94 1.94 0 00-1.107-1.676c-36.347-22.335-96.257-32.937-157.025-32.937zm-5.765 20.647c-56.189-.2-111.78 10.23-142.977 31.914a2.11 2.11 0 00-.571 2.71 1.653 1.653 0 002.42.64c30.033-20.875 85.336-31.561 141.128-31.366s112.13 11.261 144.23 32.704a1.643 1.643 0 002.393-.67 2.09 2.09 0 00-.6-2.68c-33.169-22.163-89.832-33.056-146.021-33.253zm-17.4 24.605c-36.094.483-70.331 7.094-90.986 20.585a1.964 1.964 0 00-1.032 1.717 2 2 0 00.929 1.789 1.587 1.587 0 001.843-.156c22.424-14.647 63.508-21.267 104.69-19.856s82.584 10.864 105.778 27.345a1.587 1.587 0 001.811.184 2.062 2.062 0 00.038-3.472c-24.253-17.234-65.938-26.529-107.518-27.955-5.2-.178-10.4-.252-15.554-.183z" fill="#520"/><path data-name="Path 177" d="M129.999 52.245c-107.943 25.646-117.352 89 25.494 110.648 67.066 12.1 87.027 11.515 152.279 8.644 202.707-10.19 119.046-105.072 47.544-114.971-61.767-9.307-147.2-19.524-225.315-4.322z" fill="none"/><path data-name="Path 178" d="M37.797 77.385l-.975 1.705c6.37 3.462 9.49 7.415 10.476 11.085a10.578 10.578 0 01-2.436 9.866c-4.715 5.487-14.523 7.8-22.533.853l-1.218 1.462c8.768 7.609 19.8 5.264 25.215-1.035a12.729 12.729 0 002.863-11.694c-1.161-4.321-4.7-8.608-11.389-12.242z" fill="#520"/><path data-name="Path 179" d="M105.463 39.868l-1.827.731c1.986 4.875-.6 11.619-5.481 15.043a11.691 11.691 0 01-8.648 2.071c-3.261-.5-6.857-2.375-10.536-6.456l-1.462 1.279c3.9 4.33 7.91 6.547 11.694 7.126a13.851 13.851 0 0010.11-2.436c5.586-3.919 8.579-11.4 6.151-17.357z" fill="#520"/><path data-name="Path 180" d="M372.524 43.942c-.927 6.06-.183 10.41 1.766 13.338a10.767 10.767 0 008.4 4.568c6.6.525 14.175-2.995 17.844-7.369l-1.462-1.279c-3.117 3.715-10.5 7.157-16.261 6.7a8.6 8.6 0 01-6.882-3.715c-1.584-2.38-2.343-6.172-1.462-11.937l-1.949-.3z" fill="#520"/><path data-name="Path 181" d="M441.827 79.626c-4.493 7.435-3.8 17.877 1.34 24.118a13.526 13.526 0 0011.024 5.055c4.663-.126 10.136-2.351 16.383-7.43l-1.218-1.523c-6.027 4.9-11.143 6.894-15.226 7a11.354 11.354 0 01-9.44-4.324c-4.5-5.461-5.175-15.215-1.157-21.865l-1.705-1.035z" fill="#520"/><path data-name="Path 182" d="M54.849 139.595c59.109 66.641 336.93 61.292 388.81 5.847-61.91 49.426-303.72 55.993-388.81-5.847z" fill="none"/><path data-name="Path 183" d="M815.891 450.243c-107.943 25.646-117.352 89 25.494 110.648 67.066 12.1 87.027 19.311 152.279 8.644 202.707-10.19 119.046-105.072 47.544-114.971-61.767-9.306-147.2-19.524-225.315-4.322z" transform="translate(-668.936 -384.512)" opacity=".642" fill="url(#d)"/><path data-name="Path 184" d="M699.141 474.857a2.847 2.847 0 00-2.448 1.926 2.992 2.992 0 00.7 3.094c16.232 17.166 44.105 30.6 77.86 40.514s73.415 16.178 113.206 18.33 79.695.183 113.916-6.448 62.837-17.794 80.008-34.8a3 3 0 00.079-4.141 2.773 2.773 0 00-4.01-.082c-15.78 15.623-43.452 26.755-77.088 33.272s-73.2 8.484-112.617 6.353-78.677-8.363-111.913-18.121-60.37-23.157-75.352-39a2.782 2.782 0 00-2.342-.9z" transform="translate(-648.075 -353.796)" fill="url(#e)"/><path data-name="Path 185" d="M735.7 536.351a2.541 2.541 0 00-2.026 1.976 3.392 3.392 0 00.638 3.08c13.922 16.831 37.569 29.7 66.1 38.918s61.979 14.675 95.463 16.017 67-1.443 95.661-8.77 52.537-19.072 66.7-36.421a3.419 3.419 0 000-4.141 2.086 2.086 0 00-3.372 0c-13.014 15.942-36.1 27.636-64.27 34.837s-61.4 9.976-94.569 8.648-66.275-6.757-94.371-15.835-51.122-21.922-63.971-37.456a2.137 2.137 0 00-1.984-.853z" transform="translate(-669.837 -295.451)" opacity=".451" fill="url(#a)"/><path data-name="Path 186" d="M2.408 57.13a2.765 2.765 0 01-2.28-2.013 3.077 3.077 0 01.777-3.067c16.155-16.573 43.342-29 76.047-37.7S147.9.818 186.125.095s76.415 2.676 109 10.529 59.633 20.037 75.511 37.643a3.089 3.089 0 01-.067 4.141 2.587 2.587 0 01-3.847-.062c-14.591-16.179-40.74-28.3-72.765-36.016S224.062 5.226 186.2 5.943s-75.723 5.536-107.925 14.1-58.68 20.972-73.592 36.27a2.606 2.606 0 01-2.277.816z" transform="matrix(1 .024 -.024 1 40.588 23.294)" fill="url(#f)"/><path data-name="Path 187" d="M149.011 161.033l-31.565-96.472-28.485 8.77 40.8 84.778z" fill="#fff" opacity=".283"/><path data-name="Path 188" d="M337.376 169.803l31.565-96.472 28.485 8.772-40.8 84.777z" fill="#fcfcfc" opacity=".296"/><path data-name="Path 189" d="M6.131 47.995c-2.617-17.7 21.5-44.934 42.876-41.9" fill="none" stroke="#707070" stroke-linecap="round" stroke-linejoin="round" stroke-width="2.9"/><path data-name="Path 190" d="M8.778 46.183C6.366 29.189 28.597 3.043 48.294 5.954" fill="none" stroke="#707070" stroke-linecap="round" stroke-linejoin="round" stroke-width="2.9"/><path data-name="Path 191" d="M468.923 44.564c2.515-15.227-20.662-38.654-41.2-36.045" fill="none" stroke="#707070" stroke-linecap="round" stroke-linejoin="round" stroke-width="2.9"/><path data-name="Path 192" d="M2.408 57.13a2.765 2.765 0 01-2.28-2.013 3.077 3.077 0 01.777-3.067c16.155-16.573 43.342-29 76.047-37.7S147.9.818 186.125.095s76.415 2.676 109 10.529 59.633 20.037 75.511 37.643a3.089 3.089 0 01-.067 4.141 2.587 2.587 0 01-3.847-.062c-14.591-16.179-40.74-28.3-72.765-36.016S224.062 5.226 186.2 5.943s-75.723 5.536-107.925 14.1-58.68 20.972-73.592 36.27a2.606 2.606 0 01-2.277.816z" transform="matrix(1 .024 -.024 1 40.588 23.294)" fill="url(#g)"/><path data-name="Path 193" d="M139.627 157.135c72.435-40.421 193.592-18.812 217.3 7.8-40.217 10.487-172.81 13.101-217.3-7.8z" fill="#b19582"/></g></svg>